HIERARCHY
ROOT Hips
{
	OFFSET 0.00000 0.00000 0.00000
	CHANNELS 6 Xposition Yposition Zposition Zrotation Yrotation Xrotation 
	JOINT LHipJoint
	{
		OFFSET 0 0 0
		CHANNELS 3 Zrotation Yrotation Xrotation
		JOINT LeftUpLeg
		{
			OFFSET 1.75344 -1.53157 0.77399
			CHANNELS 3 Zrotation Yrotation Xrotation
			JOINT LeftLeg
			{
				OFFSET 2.25415 -6.19323 0.00000
				CHANNELS 3 Zrotation Yrotation Xrotation
				JOINT LeftFoot
				{
					OFFSET 2.30342 -6.32861 0.00000
					CHANNELS 3 Zrotation Yrotation Xrotation
					JOINT LeftToeBase
					{
						OFFSET 0.10958 -0.30108 1.49206
						CHANNELS 3 Zrotation Yrotation Xrotation
						End Site
						{
							OFFSET 0.00000 -0.00000 0.77783
						}
					}
				}
			}
		}
	}
	JOINT RHipJoint
	{
		OFFSET 0 0 0
		CHANNELS 3 Zrotation Yrotation Xrotation
		JOINT RightUpLeg
		{
			OFFSET -1.81912 -1.53156 0.77399
			CHANNELS 3 Zrotation Yrotation Xrotation
			JOINT RightLeg
			{
				OFFSET -2.22882 -6.12365 0.00000
				CHANNELS 3 Zrotation Yrotation Xrotation
				JOINT RightFoot
				{
					OFFSET -2.21943 -6.09785 0.00000
					CHANNELS 3 Zrotation Yrotation Xrotation
					JOINT RightToeBase
					{
						OFFSET -0.18931 -0.52012 1.59379
						CHANNELS 3 Zrotation Yrotation Xrotation
						End Site
						{
							OFFSET -0.00000 -0.00000 0.84686
						}
					}
				}
			}
		}
	}
	JOINT LowerBack
	{
		OFFSET 0 0 0
		CHANNELS 3 Zrotation Yrotation Xrotation
		JOINT Spine
		{
			OFFSET -0.00200 1.66634 -0.14248
			CHANNELS 3 Zrotation Yrotation Xrotation
			JOINT Spine1
			{
				OFFSET -0.00875 1.64542 0.09514
				CHANNELS 3 Zrotation Yrotation Xrotation
				JOINT Neck
				{
					OFFSET 0 0 0
					CHANNELS 3 Zrotation Yrotation Xrotation
					JOINT Neck1
					{
						OFFSET 0.02257 1.59605 0.00839
						CHANNELS 3 Zrotation Yrotation Xrotation
						JOINT Head
						{
							OFFSET -0.10214 1.57530 -0.23335
							CHANNELS 3 Zrotation Yrotation Xrotation
							End Site
							{
								OFFSET -0.03588 1.60717 -0.08062
							}
						}
					}
				}
				JOINT LeftShoulder
				{
					OFFSET 0 0 0
					CHANNELS 3 Zrotation Yrotation Xrotation
					JOINT LeftArm
					{
						OFFSET 2.54983 1.10186 0.40078
						CHANNELS 3 Zrotation Yrotation Xrotation
						JOINT LeftForeArm
						{
							OFFSET 4.28840 -0.00000 0.00000
							CHANNELS 3 Zrotation Yrotation Xrotation
							JOINT LeftHand
							{
								OFFSET 3.06552 -0.00000 -0.00000
								CHANNELS 3 Zrotation Yrotation Xrotation
								JOINT LeftFingerBase
								{
									OFFSET 0 0 0
									CHANNELS 3 Zrotation Yrotation Xrotation
									JOINT LeftHandIndex1
									{
										OFFSET 0.75304 -0.00000 0.00000
										CHANNELS 3 Zrotation Yrotation Xrotation
										End Site
										{
											OFFSET 0.60712 -0.00000 0.00000
										}
									}
								}
								JOINT LThumb
								{
									OFFSET 0 0 0
									CHANNELS 3 Zrotation Yrotation Xrotation
									End Site
									{
										OFFSET 0.61639 -0.00000 0.61639
									}
								}
							}
						}
					}
				}
				JOINT RightShoulder
				{
					OFFSET 0 0 0
					CHANNELS 3 Zrotation Yrotation Xrotation
					JOINT RightArm
					{
						OFFSET -2.60909 1.35448 0.21802
						CHANNELS 3 Zrotation Yrotation Xrotation
						JOINT RightForeArm
						{
							OFFSET -4.52172 -0.00000 -0.00000
							CHANNELS 3 Zrotation Yrotation Xrotation
							JOINT RightHand
							{
								OFFSET -2.89140 -0.00000 0.00000
								CHANNELS 3 Zrotation Yrotation Xrotation
								JOINT RightFingerBase
								{
									OFFSET 0 0 0
									CHANNELS 3 Zrotation Yrotation Xrotation
									JOINT RightHandIndex1
									{
										OFFSET -0.68054 -0.00000 0.00000
										CHANNELS 3 Zrotation Yrotation Xrotation
										End Site
										{
											OFFSET -0.54867 -0.00000 0.00000
										}
									}
								}
								JOINT RThumb
								{
									OFFSET 0 0 0
									CHANNELS 3 Zrotation Yrotation Xrotation
									End Site
									{
										OFFSET -0.55705 -0.00000 0.55705
									}
								}
							}
						}
					}
				}
			}
		}
	}
}
MOTION
Frames: 15
Frame Time: .0083333
7.9425 15.4431 -31.0323 -178.1600 -23.5355 181.6840 0.0000 0.0000 0.0000 -26.2705 -9.1995 -8.8786 2.3717 9.6008 27.6934 1.5836 -1.1885 -23.4529 0.2931 -3.4814 -9.6219 0.0000 0.0000 0.0000 14.2412 18.1310 -17.8222 -2.8156 -10.3903 30.2502 -0.3093 -9.8182 -18.2437 -2.3247 9.5119 -27.4102 -3.4928 2.1732 9.3477 -0.2011 2.2862 4.1918 1.5234 0.9768 -1.0196 5.6163 9.2210 -4.5471 -2.6178 11.8935 -3.6068 -1.5073 5.8173 0.1342 -0.0000 0.0000 0.0000 -88.4665 -4.6852 6.8295 18.8216 -29.1965 -4.9435 -0.0000 -0.0000 12.8209 7.7837 -35.6399 -4.5539 -7.1250 0.0000 -0.0000 -13.7238 -5.0096 15.2986 -0.0000 0.0000 0.0000 86.2261 1.2695 18.2305 -20.8573 31.6614 -5.9749 0.0000 0.0000 18.8728 -16.2024 -53.4514 13.1394 7.1250 -0.0000 -0.0000 67.1420 -77.4851 -54.8866
7.9516 15.4389 -31.0808 -178.4260 -23.8952 181.7900 0.0000 0.0000 0.0000 -26.4534 -9.1407 -8.9593 2.4383 9.7248 28.0901 1.6035 -1.1492 -23.6137 0.5283 -4.6578 -12.9352 0.0000 0.0000 0.0000 13.7533 19.0228 -17.2082 -2.6030 -10.0228 29.0504 -0.3288 -9.5101 -18.1410 -2.1142 9.1001 -26.1089 -3.9083 2.2883 9.3068 -0.1579 2.4098 4.1618 1.7882 1.0364 -1.0525 7.7688 9.6060 -2.7301 -4.8732 12.4483 -4.5701 -2.6777 6.0838 -0.1507 0.0000 -0.0000 0.0000 -88.6640 -3.0848 8.0298 20.5874 -31.3436 -5.8338 -0.0000 -0.0000 11.7452 7.0513 -34.0807 -3.9650 -7.1250 0.0000 -0.0000 -14.0142 -3.4078 15.2755 0.0000 -0.0000 0.0000 86.0809 1.1184 18.0989 -20.9032 31.7152 -5.9990 0.0000 0.0000 18.8960 -15.9051 -53.3973 12.8851 7.1250 -0.0000 -0.0000 66.9899 -77.3542 -54.6074
7.9637 15.4355 -31.1144 -178.1580 -24.3897 181.8610 0.0000 0.0000 0.0000 -26.0752 -9.2425 -9.2433 2.4911 9.8217 28.4014 1.5999 -1.0762 -23.6073 0.8390 -5.8429 -16.3292 0.0000 0.0000 0.0000 13.7240 19.9341 -16.8841 -2.4270 -9.7040 28.0234 -0.3225 -9.4187 -17.9694 -1.9744 8.8126 -25.2107 -3.6609 2.3472 9.3643 -0.0307 2.5214 4.0236 1.7645 1.1050 -1.2294 7.6367 9.7864 -2.7912 -4.8260 12.6995 -4.3040 -2.6188 6.2177 -0.0520 0.0000 -0.0000 0.0000 -88.6598 -2.8940 8.2305 20.4538 -31.1853 -5.7645 -0.0000 -0.0000 11.7553 6.9164 -33.9296 -3.8735 -7.1250 0.0000 -0.0000 -14.0785 -3.2451 15.3120 0.0000 -0.0000 0.0000 85.9729 1.0245 17.8071 -20.8771 31.6846 -5.9852 0.0000 0.0000 18.8874 -15.6808 -53.4253 12.7047 7.1250 -0.0000 -0.0000 67.1817 -77.2733 -54.6989
7.9930 15.4308 -31.1268 -177.0260 -25.1668 181.9960 0.0000 0.0000 0.0000 -24.6276 -9.8026 -10.2135 2.5680 9.9606 28.8491 1.5803 -1.6640 -23.2994 0.8404 -5.8477 -16.3431 0.0000 0.0000 0.0000 14.4021 21.2608 -16.9673 -2.2484 -9.3654 26.9451 -0.1850 -10.3973 -17.3942 -2.1455 9.1627 -26.3057 -2.7353 2.2029 9.4804 0.3015 2.4433 3.6700 1.5871 1.0960 -1.6320 7.6868 10.0401 -2.6970 -4.8615 13.0520 -4.1720 -2.6261 6.3989 0.0019 0.0000 -0.0000 0.0000 -88.7836 -2.7665 7.7613 20.3166 -31.0219 -5.6936 -0.0000 -0.0000 12.2090 6.9713 -34.1581 -3.9275 -7.1250 0.0000 -0.0000 -14.0622 -3.4728 15.3463 0.0000 -0.0000 0.0000 85.8671 1.0347 17.8653 -20.7287 31.5104 -5.9075 0.0000 0.0000 18.6909 -15.7582 -53.3819 12.7615 7.1250 -0.0000 -0.0000 66.9695 -77.2927 -54.5235
8.0015 15.4288 -31.1583 -177.3730 -25.6679 182.0910 0.0000 0.0000 0.0000 -24.8848 -9.9873 -10.1771 2.6255 10.0627 29.1799 1.6146 -2.2742 -23.4069 0.7255 -5.4423 -15.1746 0.0000 0.0000 0.0000 13.8506 22.1744 -16.2851 -2.0918 -9.0548 25.9669 -0.1133 -10.8860 -17.0785 -2.2180 9.3061 -26.7578 -3.0908 2.1911 9.6949 0.2691 2.3876 3.6187 1.7513 1.0697 -1.8127 7.9620 10.2872 -2.3853 -5.1647 13.4035 -4.2033 -2.7748 6.5786 0.0040 0.0000 -0.0000 0.0000 -88.9533 -2.6762 7.0327 20.1342 -30.8037 -5.5999 -0.0000 -0.0000 12.7546 7.2578 -34.6184 -4.1382 -7.1250 0.0000 -0.0000 -13.9357 -3.9536 15.3104 0.0000 -0.0000 0.0000 85.7185 0.9595 18.3054 -20.6451 31.4118 -5.8639 0.0000 0.0000 18.2850 -16.2537 -53.3079 13.1581 7.1250 -0.0000 -0.0000 66.4904 -77.4686 -54.2670
8.0111 15.4259 -31.1947 -177.4710 -26.2076 182.1110 0.0000 0.0000 0.0000 -24.8848 -10.1538 -10.1495 2.6730 10.1458 29.4503 1.6509 -2.9378 -23.5314 0.5485 -4.7444 -13.1811 0.0000 0.0000 0.0000 13.5788 22.9378 -15.6696 -1.9527 -8.7668 25.0684 -0.1081 -11.1630 -17.3666 -2.1105 9.0925 -26.0852 -3.2205 2.1770 9.8626 0.2999 2.3569 3.5138 1.8523 1.0608 -2.0182 8.2704 10.4557 -1.9841 -5.4894 13.6604 -4.2152 -2.9453 6.7138 -0.0032 -0.0000 -0.0000 0.0000 -89.0554 -2.4152 6.6503 20.0103 -30.6548 -5.5366 -0.0000 -0.0000 12.9817 7.3671 -35.0114 -4.2425 -7.1250 0.0000 -0.0000 -13.9027 -4.3477 15.3614 -0.0000 -0.0000 0.0000 85.6918 0.7094 18.3999 -20.7048 31.4822 -5.8950 0.0000 0.0000 18.2047 -16.1312 -53.3311 13.0608 7.1250 -0.0000 -0.0000 66.6303 -77.4262 -54.3515
8.0201 15.4229 -31.2316 -177.4530 -26.7305 182.0500 0.0000 0.0000 0.0000 -24.7920 -10.2781 -9.9743 2.6790 10.1563 29.4845 1.6686 -3.5997 -23.5344 0.3100 -3.5792 -9.8958 0.0000 0.0000 0.0000 13.4535 23.7477 -15.0889 -1.8545 -8.5563 24.4169 -0.1321 -11.5502 -18.1636 -2.1379 9.1477 -26.2584 -3.1626 2.1985 10.0732 0.3614 2.3897 3.4121 1.8711 1.0840 -2.2413 8.4116 10.5530 -1.6077 -5.6672 13.8246 -4.2239 -3.0438 6.8036 -0.0343 0.0000 -0.0000 0.0000 -89.1336 -2.0775 6.6795 19.9911 -30.6316 -5.5268 -0.0000 -0.0000 13.0301 7.4323 -34.9732 -4.2762 -7.1250 0.0000 -0.0000 -13.8651 -4.3191 15.3109 0.0000 -0.0000 0.0000 85.6639 0.4087 18.1744 -20.8564 31.6604 -5.9744 0.0000 0.0000 18.4429 -15.7575 -53.5014 12.7801 7.1250 -0.0000 -0.0000 67.4924 -77.3227 -55.0388
8.0284 15.4216 -31.2640 -177.4510 -27.2510 182.0600 0.0000 0.0000 0.0000 -24.7053 -10.4019 -9.9512 2.7047 10.2009 29.6297 1.6800 -4.0932 -23.5345 0.2413 -3.1611 -8.7277 0.0000 0.0000 0.0000 13.3191 24.5421 -14.5626 -1.7662 -8.3610 23.8161 -0.1168 -11.9832 -18.5330 -2.2861 9.4381 -27.1757 -2.9549 2.2348 10.0817 0.3511 2.4561 3.4516 1.7362 1.1157 -2.2000 8.7097 10.5882 -1.1152 -6.1237 13.8974 -4.6401 -3.2868 6.8415 -0.1887 0.0000 -0.0000 0.0000 -89.0854 -2.0129 6.9081 20.0144 -30.6597 -5.5387 -0.0000 -0.0000 13.0229 7.5755 -34.7302 -4.3329 -7.1250 0.0000 -0.0000 -13.7717 -4.1022 15.1528 0.0000 -0.0000 0.0000 85.7100 0.3943 17.8744 -20.9436 31.7625 -6.0202 0.0000 0.0000 18.6998 -15.5580 -53.6650 12.6412 7.1250 -0.0000 -0.0000 68.2650 -77.2841 -55.7143
8.0408 15.4147 -31.2933 -177.4610 -27.7832 182.2070 0.0000 0.0000 0.0000 -24.5941 -10.5790 -10.1130 2.7357 10.2543 29.8042 1.6820 -4.3618 -23.5074 0.3076 -3.5658 -9.8581 0.0000 0.0000 0.0000 13.1617 25.0634 -14.3263 -1.6873 -8.1819 23.2679 -0.0828 -12.1957 -18.4000 -2.3353 9.5321 -27.4743 -2.4860 2.2862 9.7064 0.1396 2.5654 3.6955 1.2593 1.1596 -1.7175 8.5082 10.6698 -1.8069 -5.6268 13.9592 -4.2611 -3.0296 6.8640 0.0010 0.0000 -0.0000 0.0000 -88.6889 -2.4339 7.3244 20.0003 -30.6427 -5.5315 -0.0000 -0.0000 12.8061 7.7213 -34.6670 -4.4100 -7.1250 0.0000 -0.0000 -13.6887 -4.0598 15.0467 0.0000 -0.0000 0.0000 86.0722 0.8586 17.4313 -20.8848 31.6936 -5.9893 0.0000 0.0000 18.8180 -15.2858 -53.4617 12.3849 7.1250 -0.0000 -0.0000 67.4606 -77.1278 -54.8021
8.0563 15.4026 -31.3218 -177.4420 -28.4272 182.2740 0.0000 0.0000 0.0000 -24.4751 -10.7585 -10.1963 2.7671 10.3081 29.9802 1.6856 -4.5068 -23.5127 0.4786 -4.4366 -12.3084 0.0000 0.0000 0.0000 13.0724 25.4253 -14.0505 -1.6124 -8.0073 22.7363 -0.0662 -12.2989 -18.3337 -2.1661 9.2038 -26.4348 -2.3231 2.2534 9.8389 0.1288 2.5373 3.6236 1.1541 1.1506 -1.8560 8.7018 10.6795 -1.5021 -5.9307 13.9888 -4.5088 -3.1882 6.8799 -0.0896 0.0000 -0.0000 0.0000 -88.5993 -2.2116 7.5700 20.1073 -30.7715 -5.5862 -0.0000 -0.0000 12.4464 7.9109 -34.6546 -4.5178 -7.1250 0.0000 -0.0000 -13.5855 -4.0723 14.9294 0.0000 -0.0000 0.0000 86.0648 0.7665 17.5083 -20.8849 31.6937 -5.9893 0.0000 0.0000 18.5980 -15.2101 -53.2903 12.2960 7.1250 -0.0000 -0.0000 66.7504 -77.0536 -54.0677
8.0693 15.3996 -31.3566 -177.2810 -29.0498 182.1200 0.0000 0.0000 0.0000 -24.2450 -10.8994 -10.0256 2.7811 10.3320 30.0588 1.6950 -4.6963 -23.5545 0.6222 -5.0477 -14.0446 0.0000 0.0000 0.0000 13.2069 25.9231 -13.5866 -1.5654 -7.8951 22.3958 -0.0569 -12.4410 -18.4113 -1.9806 8.8256 -25.2512 -2.0564 2.2416 9.9846 0.1830 2.5427 3.6390 1.0554 1.1538 -1.9112 8.5633 10.6676 -1.4891 -5.8159 13.9775 -4.4985 -3.1288 6.8760 -0.1088 0.0000 0.0000 0.0000 -88.5146 -1.7898 8.1031 20.4387 -31.1672 -5.7567 -0.0000 -0.0000 11.8878 7.9793 -34.3977 -4.5277 -7.1250 0.0000 -0.0000 -13.5308 -3.8323 14.8127 0.0000 0.0000 0.0000 86.0417 0.6651 17.5316 -20.9573 31.7785 -6.0274 0.0000 0.0000 18.3632 -15.2905 -53.2241 12.3517 7.1250 -0.0000 -0.0000 66.4414 -77.0674 -53.7978
8.0843 15.4028 -31.4016 -176.9650 -29.4971 181.8010 0.0000 0.0000 0.0000 -23.8336 -10.8852 -9.7618 2.7829 10.3351 30.0688 1.7017 -4.9605 -23.5685 0.6693 -5.2318 -14.5710 0.0000 0.0000 0.0000 13.6403 26.5453 -12.9779 -1.5335 -7.8181 22.1630 -0.0279 -12.6519 -18.3426 -1.8890 8.6309 -24.6474 -1.8250 2.2860 10.0735 0.3024 2.6196 3.7107 1.0386 1.1893 -1.8836 8.4319 10.6033 -1.4630 -5.7725 13.8949 -4.5430 -3.0998 6.8363 -0.1466 -0.0000 0.0000 0.0000 -88.6358 -0.3228 9.2002 22.2099 -33.2135 -6.7005 -0.0000 -0.0000 10.6602 7.3605 -33.3353 -4.0604 -7.1250 0.0000 -0.0000 -13.8014 -2.7243 14.8718 -0.0000 0.0000 0.0000 86.0419 0.6028 17.5231 -21.0155 31.8465 -6.0581 0.0000 0.0000 18.2966 -15.4858 -53.1397 12.4989 7.1250 -0.0000 -0.0000 66.0143 -77.1210 -53.4621
8.0861 15.3986 -31.4228 -177.5210 -30.0398 182.2200 0.0000 0.0000 0.0000 -24.3155 -11.0028 -9.7494 2.7677 10.3092 29.9840 1.6941 -5.0081 -23.5078 0.8082 -5.7374 -16.0242 0.0000 0.0000 0.0000 13.0224 26.3269 -13.0401 -1.5187 -7.7820 22.0538 -0.0537 -12.1485 -17.9765 -1.8473 8.5404 -24.3679 -1.8110 2.2819 10.1986 0.0315 2.6110 3.6067 0.7453 1.1908 -2.0464 8.4365 10.4667 -1.5353 -5.7994 13.7073 -4.4938 -3.1103 6.7433 -0.1294 0.0000 -0.0000 0.0000 -88.5410 -0.0720 9.4770 22.4026 -33.4290 -6.8063 -0.0000 -0.0000 10.1807 7.3419 -33.4666 -4.0642 -7.1250 0.0000 -0.0000 -13.8193 -2.8492 14.9212 0.0000 -0.0000 0.0000 86.1798 0.5290 17.4268 -21.0049 31.8340 -6.0525 0.0000 0.0000 18.2460 -16.0150 -53.2283 12.9483 7.1250 -0.0000 -0.0000 66.2160 -77.3533 -53.8926
8.0952 15.3958 -31.4537 -177.7610 -30.5019 182.4440 0.0000 0.0000 0.0000 -24.4275 -11.1432 -9.7204 2.7545 10.2866 29.9099 1.6813 -5.4529 -23.3648 0.7109 -5.3887 -15.0207 0.0000 0.0000 0.0000 12.8179 26.3580 -12.9727 -1.5176 -7.7794 22.0459 -0.0492 -11.8743 -17.5467 -1.8598 8.5678 -24.4526 -1.9850 2.2925 10.0629 0.0503 2.6129 3.6448 0.8675 1.1904 -1.9411 8.8253 10.6057 -1.5393 -6.0907 13.8992 -4.1777 -3.2500 6.8441 0.0390 0.0000 0.0000 0.0000 -88.6834 -0.5212 9.1622 21.8269 -32.7808 -6.4919 -0.0000 -0.0000 10.2137 7.6765 -33.8790 -4.2969 -7.1250 0.0000 -0.0000 -13.6616 -3.2906 14.8417 0.0000 0.0000 0.0000 86.0754 0.6490 17.3705 -20.9588 31.7802 -6.0282 0.0000 0.0000 18.2997 -15.9789 -53.2259 12.9182 7.1250 -0.0000 -0.0000 66.2168 -77.3384 -53.8777
8.1101 15.3982 -31.4916 -177.9000 -30.9764 182.6610 0.0000 0.0000 0.0000 -24.3822 -11.4746 -9.6900 2.7374 10.2574 29.8142 1.6543 -6.2140 -23.1026 0.4125 -4.1226 -11.4218 0.0000 0.0000 0.0000 12.7549 26.4999 -12.9593 -1.5383 -7.8298 22.1983 -0.0363 -11.7441 -17.2018 -1.8186 8.4775 -24.1740 -2.1156 2.3797 9.8077 0.1255 2.7276 3.6940 1.0152 1.2460 -1.7634 8.0876 10.4136 -1.8088 -5.6938 13.6311 -4.1393 -2.9906 6.7134 -0.0076 -0.0000 0.0000 0.0000 -88.8573 -1.0034 8.8705 21.2337 -32.1001 -6.1737 -0.0000 -0.0000 10.5798 7.9496 -34.1215 -4.4790 -7.1250 0.0000 -0.0000 -13.5285 -3.5607 14.7493 -0.0000 0.0000 0.0000 85.9806 0.7203 17.0108 -20.9303 31.7469 -6.0132 0.0000 0.0000 18.5748 -15.3167 -53.0672 12.3487 7.1250 -0.0000 -0.0000 65.7644 -77.0342 -53.1411
